<?xml version="1.0" standalone="no"?>
<!DOCTYPE svg PUBLIC "-//W3C//DTD SVG 1.1//EN" "http://www.w3.org/Graphics/SVG/1.1/DTD/svg11.dtd" >
<svg xmlns="http://www.w3.org/2000/svg">
<metadata></metadata>
<defs>
<font id="campton-500" horiz-adv-x="1228" >
<font-face units-per-em="2048" ascent="1638" descent="-410" />
<missing-glyph horiz-adv-x="530" />
<glyph horiz-adv-x="0" />
<glyph horiz-adv-x="682" />
<glyph unicode=" "  horiz-adv-x="530" />
<glyph unicode="&#x09;" horiz-adv-x="530" />
<glyph unicode="&#xa0;" horiz-adv-x="530" />
<glyph unicode="!" horiz-adv-x="587" d="M418 449h-250l-25 944h299zM293 -20q-68 0 -117 46.5t-49 114.5q0 67 49 113.5t117 46.5q69 0 118.5 -46.5t49.5 -113.5q0 -68 -49 -114.5t-119 -46.5z" />
<glyph unicode="&#x22;" horiz-adv-x="702" d="M307 1393v-580h-237v580h237zM633 1393v-580h-238v580h238z" />
<glyph unicode="#" horiz-adv-x="1589" d="M1190 578h227v-252h-305l-102 -326h-289l102 326h-282l-103 -326h-288l102 326h-193v252h271l63 200h-221v252h299l115 365h288l-114 -365h282l115 365h289l-115 -365h199v-252h-277zM682 778l-64 -200h283l64 200h-283z" />
<glyph unicode="$" horiz-adv-x="1376" d="M662 842l172 -35q213 -45 319.5 -135.5t106.5 -257.5q0 -172 -114 -287.5t-312 -146.5v-216h-248v216q-210 30 -342.5 155.5t-147.5 325.5h293q17 -106 106 -168t226 -62q110 0 170.5 39.5t60.5 110.5q0 110 -176 143l-225 43q-204 41 -301.5 143t-97.5 267 q0 179 117.5 297t316.5 143v219h248v-225q81 -15 149.5 -45.5t130 -81.5t102 -132t50.5 -185h-295q-30 204 -264 204q-109 0 -174.5 -45t-65.5 -125q0 -67 48 -103t147 -56z" />
<glyph unicode="%" horiz-adv-x="2226" d="M565 1423q176 0 294 -112t118 -289q0 -180 -118 -293t-294 -113q-177 0 -294 112.5t-117 293.5q0 178 117 289.5t294 111.5zM723 0h-195l947 1393h196zM565 813q85 0 144 58t59 151q0 90 -59 147.5t-144 57.5q-87 0 -146 -57t-59 -148q0 -93 59 -151t146 -58zM1661 776 q177 0 295.5 -111.5t118.5 -289.5q0 -180 -118 -293t-296 -113q-176 0 -293 113t-117 293q0 178 117 289.5t293 111.5zM1661 166q87 0 146 58t59 151q0 91 -59 148t-146 57q-85 0 -144 -57.5t-59 -147.5q0 -93 59 -151t144 -58z" />
<glyph unicode="&#x26;" horiz-adv-x="1484" d="M1087 0l-106 100q-172 -131 -399 -131q-235 0 -380 121.5t-145 317.5q0 120 63 214.5t173 153.5q-90 124 -90 246q0 174 128 287.5t322 113.5q190 0 307 -114t138 -305h-281q-9 79 -52.5 124.5t-111.5 45.5q-65 0 -110 -44t-45 -112q0 -30 11.5 -60.5t25.5 -54.5 t53 -65.5t65.5 -68t91.5 -87.5l226 -215l166 266h295l-261 -418l-16 -24l303 -291h-371zM584 217q104 0 209 62l-275 260l-59 57q-127 -70 -127 -184q0 -79 74.5 -137t177.5 -58z" />
<glyph unicode="'" horiz-adv-x="376" d="M307 1393v-580h-237v580h237z" />
<glyph unicode="(" horiz-adv-x="765" d="M539 1511l186 -188q-83 -87 -139 -160.5t-101 -160t-66.5 -183t-21.5 -209.5q0 -213 79.5 -372.5t248.5 -337.5l-186 -187q-435 382 -435 897q0 519 435 901z" />
<glyph unicode=")" horiz-adv-x="763" d="M41 1323l188 188q433 -383 433 -901q0 -514 -433 -897l-188 187q169 178 248.5 337.5t79.5 372.5q0 113 -21.5 209.5t-66.5 183t-101 160t-139 160.5z" />
<glyph unicode="*" horiz-adv-x="839" d="M760 956l-76 -133l-184 111v-197h-160v197l-184 -111l-78 133l192 117l-192 117l78 137l184 -115v197h160v-197l184 115l76 -137l-191 -117z" />
<glyph unicode="+" horiz-adv-x="1390" d="M825 553v-346h-260v346h-362v252h362v346h260v-346h363v-252h-363z" />
<glyph unicode="," horiz-adv-x="454" d="M59 -223l101 213q-99 44 -99 135q0 67 48.5 113.5t117.5 46.5q71 0 119.5 -46.5t48.5 -113.5q0 -33 -9 -60.5t-46 -91.5l-115 -196h-166z" />
<glyph unicode="-" horiz-adv-x="1126" d="M924 672v-281h-721v281h721z" />
<glyph unicode="." horiz-adv-x="456" d="M227 -39q-70 0 -119 47t-49 117q0 68 49 115t119 47q71 0 120.5 -46.5t49.5 -115.5q0 -70 -49.5 -117t-120.5 -47z" />
<glyph unicode="/" horiz-adv-x="843" d="M358 -328h-272l512 1823h272z" />
<glyph unicode="0" horiz-adv-x="1472" d="M737 1423q194 0 338.5 -95t218.5 -258.5t74 -373.5t-74 -373.5t-218.5 -258.5t-338.5 -95q-195 0 -340 95t-219 258.5t-74 373.5t74 373.5t219 258.5t340 95zM737 233q110 0 187.5 63t114 165.5t36.5 234.5t-36.5 234.5t-114 165.5t-187.5 63q-111 0 -189 -63 t-114.5 -165.5t-36.5 -234.5t36.5 -234.5t114.5 -165.5t189 -63z" />
<glyph unicode="1" horiz-adv-x="1069" d="M1059 242v-242h-979v242h354v837l-338 -100v252l459 162h170v-1151h334z" />
<glyph unicode="2" horiz-adv-x="1155" d="M1057 242v-242h-953v150l424 518q25 31 68 82t63 75.5t43.5 59.5t33 63t9.5 56q0 66 -45.5 114.5t-138.5 48.5q-89 0 -141.5 -53.5t-63.5 -148.5h-288q5 208 132.5 333t352.5 125q114 0 208 -34t154.5 -92t93.5 -133.5t33 -159.5q0 -42 -13 -84.5t-29 -76t-58 -90.5 t-71.5 -93.5t-98.5 -118.5l-246 -299h531z" />
<glyph unicode="3" horiz-adv-x="1157" d="M901 702q186 -95 186 -307q0 -184 -137.5 -305t-357.5 -121q-229 0 -357 111t-157 309h284q24 -86 75 -129t159 -43q96 0 156.5 50.5t60.5 127.5q0 82 -67.5 131t-176.5 49h-110v232h110q90 0 145.5 50t55.5 130q0 83 -50 131.5t-132 48.5q-79 0 -133.5 -47.5 t-63.5 -124.5h-282q14 188 144.5 304t330.5 116q205 0 331.5 -118t126.5 -304q0 -192 -141 -291z" />
<glyph unicode="4" horiz-adv-x="1314" d="M1237 268h-180v-268h-283v268h-713v183l390 942h294l-348 -875h377v397h283v-397h180v-250z" />
<glyph unicode="5" horiz-adv-x="1222" d="M453 899h176q219 0 354 -126.5t135 -323.5q0 -209 -142 -344.5t-368 -135.5q-224 0 -362 113t-166 307h285q51 -172 243 -172q103 0 169.5 63.5t66.5 159.5q0 94 -68.5 152.5t-185.5 58.5h-408v742h877v-260h-606v-234z" />
<glyph unicode="6" horiz-adv-x="1269" d="M922 1393l-273 -432q154 -3 276 -68t189.5 -175t67.5 -245q0 -141 -69 -255.5t-194.5 -181.5t-283.5 -67q-119 0 -222 39.5t-173.5 107t-111 158t-40.5 191.5q0 85 30.5 164.5t96.5 185.5l367 578h340zM635 205q114 0 188 75.5t74 178.5q0 101 -74 175.5t-188 74.5 q-101 0 -178 -54l-2 -2q-47 -66 -65.5 -109t-18.5 -89q0 -100 75 -175t189 -75z" />
<glyph unicode="7" horiz-adv-x="1042" d="M1004 1393v-174l-553 -1219h-326l516 1120h-621v273h984z" />
<glyph unicode="8" horiz-adv-x="1282" d="M975 735q105 -53 162 -140.5t57 -199.5q0 -190 -149 -308t-404 -118t-404 118t-149 308q0 112 57 199.5t162 140.5q-164 101 -164 289q0 177 139 288t359 111q219 0 357.5 -111t138.5 -288q0 -189 -162 -289zM641 1198q-96 0 -155.5 -53.5t-59.5 -136.5q0 -81 60 -137 t155 -56q93 0 154 56.5t61 136.5q0 81 -60.5 135.5t-154.5 54.5zM641 209q101 0 168.5 60.5t67.5 146.5q0 84 -67 142t-169 58q-103 0 -169 -57t-66 -143q0 -88 66 -147.5t169 -59.5z" />
<glyph unicode="9" horiz-adv-x="1269" d="M635 1423q158 0 284 -67.5t194.5 -180t68.5 -247.5q0 -85 -30.5 -164.5t-96.5 -185.5l-365 -578h-342l273 432q-154 3 -276 68t-189.5 175t-67.5 245q0 141 69 255.5t194.5 181t283.5 66.5zM813 737l2 2q47 66 65.5 109.5t18.5 89.5q0 100 -75 175t-189 75 q-113 0 -187.5 -75.5t-74.5 -178.5q0 -101 74 -174.5t188 -73.5q105 0 178 51z" />
<glyph unicode=":" horiz-adv-x="456" d="M227 686q-70 0 -119 47t-49 115t49 115t119 47q71 0 120.5 -46.5t49.5 -115.5t-49.5 -115.5t-120.5 -46.5zM227 -39q-70 0 -119 47t-49 117q0 68 49 115t119 47t120 -47t50 -115q0 -70 -50 -117t-120 -47z" />
<glyph unicode=";" horiz-adv-x="456" d="M227 686q-70 0 -119 47t-49 115t49 115t119 47q71 0 120.5 -46.5t49.5 -115.5t-49.5 -115.5t-120.5 -46.5zM61 -223l101 213q-99 44 -99 135q0 67 48.5 113.5t117.5 46.5q71 0 119.5 -46.5t48.5 -113.5q0 -33 -9 -60.5t-46 -91.5l-115 -196h-166z" />
<glyph unicode="&#x3c;" horiz-adv-x="1103" d="M963 1153v-276l-557 -250l557 -252v-277l-865 389v277z" />
<glyph unicode="=" horiz-adv-x="1392" d="M1190 741h-987v252h987v-252zM1190 328h-987v252h987v-252z" />
<glyph unicode="&#x3e;" horiz-adv-x="1103" d="M1004 487l-865 -389v277l557 252l-557 250v276l865 -389v-277z" />
<glyph unicode="?" horiz-adv-x="1079" d="M373 438l-21 330h154q96 0 159.5 54.5t63.5 146.5q0 89 -55 143.5t-146 54.5q-84 0 -140.5 -47.5t-65.5 -124.5h-283q14 192 138 306t339 114q208 0 345.5 -124t137.5 -322q0 -166 -105 -269t-290 -125l-12 -137h-219zM477 -20q-69 0 -117.5 46t-48.5 115 q0 67 48.5 113.5t117.5 46.5t118.5 -46.5t49.5 -113.5q0 -68 -49 -114.5t-119 -46.5z" />
<glyph unicode="@" horiz-adv-x="2043" d="M1454 903v-479q0 -168 115 -168q155 0 155 256q0 193 -88.5 346t-245.5 238.5t-352 85.5q-147 0 -279.5 -53.5t-228.5 -145t-152 -219t-56 -270.5t56 -271t151 -219t224 -144t271 -53q247 0 440 148l111 -166q-240 -174 -549 -174q-185 0 -352 67t-289 182.5t-194 279.5 t-72 350q0 247 122 449t332 316.5t463 114.5q252 0 454.5 -109t317.5 -305.5t115 -443.5q0 -101 -20 -183t-61.5 -145.5t-111.5 -98t-163 -34.5q-215 0 -299 135q-56 -62 -135 -96.5t-170 -34.5q-178 0 -297 124t-119 306q0 184 119 308.5t297 124.5q134 0 241 -76v57h250z M1006 276q53 0 108 27t94 88q-4 62 -4 96v109q-38 55 -91 83t-107 28q-82 0 -145.5 -59.5t-63.5 -155.5q0 -98 63.5 -157t145.5 -59z" />
<glyph unicode="A" horiz-adv-x="1546" d="M1090 268h-631l-109 -268h-315l600 1401h278l598 -1401h-313zM979 537l-207 510l-205 -510h412z" />
<glyph unicode="B" horiz-adv-x="1431" d="M1090 721q126 -27 191 -119.5t65 -218.5q0 -173 -135 -278t-365 -105h-709v1393h676q222 0 346.5 -98t124.5 -269q0 -103 -53 -188t-141 -117zM434 1137v-320h340q110 0 171 45.5t61 122.5q0 74 -58.5 113t-173.5 39h-340zM434 256h391q113 0 171.5 46.5t58.5 117.5 t-59 108t-162 37h-400v-309z" />
<glyph unicode="C" horiz-adv-x="1622" d="M831 254q150 0 248 79.5t135 229.5h304q-43 -268 -230.5 -430t-456.5 -162q-201 0 -367.5 92.5t-263 259t-96.5 373.5t96.5 373.5t263 259t367.5 92.5q269 0 456.5 -162t230.5 -430h-304q-37 150 -135 230t-248 80q-187 0 -307.5 -123t-120.5 -320t120.5 -319.5 t307.5 -122.5z" />
<glyph unicode="D" horiz-adv-x="1511" d="M137 1393h543q211 0 381.5 -89.5t267 -247.5t96.5 -354q0 -200 -96.5 -361t-267 -251t-381.5 -90h-543v1393zM434 272h246q186 0 315 124.5t129 305.5q0 175 -129 297.5t-315 122.5h-246v-850z" />
<glyph unicode="E" horiz-adv-x="1253" d="M434 1124v-303h651v-268h-651v-285h735v-268h-1032v1393h1032v-269h-735z" />
<glyph unicode="F" horiz-adv-x="1196" d="M434 1122v-342h629v-268h-629v-512h-297v1393h1018v-271h-721z" />
<glyph unicode="G" horiz-adv-x="1667" d="M1540 776v-776h-227l-17 193q-159 -222 -462 -222q-156 0 -293 56.5t-232.5 152.5t-150 225.5t-54.5 272.5q0 215 98.5 386t266.5 264t373 93q93 0 181 -20t168.5 -62t146 -102.5t114.5 -145.5t72 -186h-316q-25 70 -67.5 119t-94 73t-100 34t-100.5 10 q-196 0 -319.5 -125t-123.5 -336q0 -115 52 -211.5t152 -155.5t229 -59q142 0 240.5 69.5t144.5 190.5h-412v262h731z" />
<glyph unicode="H" horiz-adv-x="1490" d="M1354 1393v-1393h-297v545h-623v-545h-297v1393h297v-578h623v578h297z" />
<glyph unicode="I" horiz-adv-x="571" d="M434 1393v-1393h-297v1393h297z" />
<glyph unicode="J" horiz-adv-x="1236" d="M1116 1393v-861q0 -269 -148 -416t-409 -147q-230 0 -377 133t-157 365h299q4 -108 73.5 -165.5t177.5 -57.5q107 0 174.5 78.5t67.5 216.5v854h299z" />
<glyph unicode="K" horiz-adv-x="1466" d="M651 555l-217 -246v-309h-297v1393h297v-682l606 682h353l-541 -613l596 -780h-369z" />
<glyph unicode="L" horiz-adv-x="1189" d="M1145 264v-264h-1008v1393h297v-1129h711z" />
<glyph unicode="M" horiz-adv-x="1738" d="M1602 1393v-1393h-297v756l-349 -547h-174v2l-350 551l4 -762h-299v1393h213l520 -820l521 820h211z" />
<glyph unicode="N" horiz-adv-x="1531" d="M1395 1393v-1393h-230l-731 846v-846h-297v1393h223l738 -869v869h297z" />
<glyph unicode="O" horiz-adv-x="1665" d="M831 1421q150 0 285.5 -57t233 -154t154.5 -231t57 -283t-57 -283t-154.5 -231t-233 -154t-285.5 -57q-200 0 -367 96.5t-263.5 263.5t-96.5 365t96.5 365t263.5 263.5t367 96.5zM831 248q121 0 220 60.5t154 163t55 224.5t-55 224.5t-154 163.5t-220 61 q-120 0 -219 -60.5t-154 -163.5t-55 -225t55 -224.5t154 -163t219 -60.5z" />
<glyph unicode="P" horiz-adv-x="1290" d="M137 1393h545q255 0 409 -135t154 -359q0 -235 -164 -376.5t-438 -141.5h-209v-381h-297v1393zM434 649h238q126 0 203 68.5t77 181.5q0 101 -77 162t-203 61h-238v-473z" />
<glyph unicode="Q" horiz-adv-x="1665" d="M1561 696q0 -157 -62 -295.5t-172 -238.5l227 -268l-217 -199l-266 315q-115 -39 -237 -39q-150 0 -285.5 57t-233 154t-154.5 231t-57 283t57 283t154.5 231t233 154t285.5 57q200 0 367 -96.5t263.5 -263.5t96.5 -365zM831 248q121 0 220 60.5t154 163t55 224.5 t-55 224.5t-154 163.5t-220 61q-120 0 -219 -60.5t-154 -163.5t-55 -225t55 -224.5t154 -163t219 -60.5z" />
<glyph unicode="R" horiz-adv-x="1415" d="M494 432h-60v-432h-297v1393h584q256 0 409.5 -131t153.5 -349q0 -179 -107 -302.5t-294 -161.5l491 -449h-403zM434 1122v-417h279q126 0 202 56.5t76 151.5q0 96 -75.5 152.5t-202.5 56.5h-279z" />
<glyph unicode="S" horiz-adv-x="1376" d="M686 1423q75 0 147 -12.5t148 -45t134 -82t99.5 -131t51.5 -185.5h-293q-30 204 -264 204q-111 0 -176.5 -45t-65.5 -125q0 -67 48 -103t149 -56l172 -35q212 -45 318 -135.5t106 -257.5q0 -200 -151.5 -321.5t-401.5 -121.5q-169 0 -302 57t-215 168.5t-94 264.5h295 q17 -107 105 -168.5t227 -61.5q110 0 169.5 39.5t59.5 110.5q0 110 -174 143l-227 43q-204 41 -300.5 143t-96.5 267q0 201 146.5 323.5t385.5 122.5z" />
<glyph unicode="T" horiz-adv-x="1333" d="M1280 1122h-465v-1122h-297v1122h-465v271h1227v-271z" />
<glyph unicode="U" horiz-adv-x="1495" d="M1376 1393v-760q0 -309 -171.5 -486.5t-459.5 -177.5q-287 0 -456.5 177.5t-169.5 486.5v760h295v-762q0 -173 91 -279t240 -106q152 0 244 105.5t92 279.5v762h295z" />
<glyph unicode="V" horiz-adv-x="1595" d="M1559 1393l-621 -1401h-279l-622 1401h325l435 -1006l438 1006h324z" />
<glyph unicode="W" horiz-adv-x="2213" d="M2157 1393l-457 -1401h-289l-305 887l-303 -887h-291l-455 1401h312l293 -938l321 938h248l321 -938l293 938h312z" />
<glyph unicode="X" horiz-adv-x="1392" d="M1028 0l-332 465l-331 -465h-342l473 688l-465 705h358l305 -469l307 469h359l-467 -705l477 -688h-342z" />
<glyph unicode="Y" horiz-adv-x="1439" d="M1421 1393l-551 -944v-449h-299v449l-555 944h328l375 -645l375 645h327z" />
<glyph unicode="Z" horiz-adv-x="1339" d="M1255 266v-266h-1175v139l735 987h-702v267h1132v-140l-702 -987h712z" />
<glyph unicode="[" horiz-adv-x="749" d="M391 -18h299v-273h-584v1786h584v-270h-299v-1243z" />
<glyph unicode="\" horiz-adv-x="843" d="M303 1495l512 -1823h-272l-514 1823h274z" />
<glyph unicode="]" horiz-adv-x="749" d="M59 1225v270h586v-1786h-586v273h301v1243h-301z" />
<glyph unicode="^" horiz-adv-x="868" d="M829 899h-258l-137 283l-139 -283h-256l272 494h246z" />
<glyph unicode="_" horiz-adv-x="1282" d="M59 -184h1164v-248h-1164v248z" />
<glyph unicode="`" d="M827 1137h-258l-204 315h311z" />
<glyph unicode="a" horiz-adv-x="1255" d="M1130 981v-981h-284v57q-119 -77 -279 -77q-203 0 -346 148t-143 361q0 142 65.5 260t178 185t245.5 67q160 0 279 -77v57h284zM614 221q147 0 232 113v313q-84 115 -232 115q-110 0 -182 -80.5t-72 -192.5q0 -110 72 -189t182 -79z" />
<glyph unicode="b" horiz-adv-x="1255" d="M688 1001q203 0 345.5 -148t142.5 -361q0 -142 -65.5 -260t-177.5 -185t-245 -67q-159 0 -278 77v-57h-285v1454h285v-530q119 77 278 77zM641 219q108 0 181 81t73 192q0 109 -73 188.5t-181 79.5q-146 0 -231 -113v-313q84 -115 231 -115z" />
<glyph unicode="c" horiz-adv-x="1175" d="M604 231q81 0 137.5 41.5t71.5 112.5h285q-22 -181 -160.5 -294.5t-333.5 -113.5q-223 0 -374.5 146.5t-151.5 365.5q0 220 151 366t375 146q195 0 333.5 -113.5t160.5 -293.5h-285q-15 71 -71.5 113.5t-137.5 42.5q-110 0 -178 -75t-68 -186t68 -184.5t178 -73.5z" />
<glyph unicode="d" horiz-adv-x="1255" d="M1130 1454v-1454h-284v57q-119 -77 -279 -77q-133 0 -245.5 67t-178 185t-65.5 260q0 213 143 361t346 148q160 0 279 -77v530h284zM614 219q148 0 232 115v313q-85 113 -232 113q-110 0 -182 -79t-72 -189q0 -112 72 -192.5t182 -80.5z" />
<glyph unicode="e" horiz-adv-x="1163" d="M1085 510q0 -82 -6 -123h-714q23 -79 84 -126.5t161 -47.5q119 0 166 74h297q-40 -141 -168 -225.5t-301 -84.5q-234 0 -380 145t-146 367q0 223 144.5 367.5t377.5 144.5q209 0 347 -137t138 -354zM592 768q-94 0 -152 -49.5t-80 -132.5h443q-12 87 -67 134.5t-144 47.5 z" />
<glyph unicode="f" horiz-adv-x="927" d="M557 981h373v-240h-373v-741h-285v741h-262v240h262v139q0 199 115 321t303 122q114 0 242 -35l-39 -244q-93 19 -145 19q-86 0 -138.5 -49.5t-52.5 -131.5v-141z" />
<glyph unicode="g" horiz-adv-x="1263" d="M1139 981v-969q0 -227 -140.5 -359t-367.5 -132q-214 0 -357.5 118t-158.5 306h286q9 -78 69.5 -124t160.5 -46q99 0 162 61.5t63 173.5v107q-121 -78 -278 -78q-132 0 -245.5 66t-179 176.5t-65.5 236.5q0 108 39 202.5t105 159.5t156 102.5t190 37.5q157 0 278 -78v39 h283zM625 279q148 0 231 118v265q-83 116 -231 116q-113 0 -183.5 -72.5t-70.5 -187.5q0 -90 73 -164.5t181 -74.5z" />
<glyph unicode="h" horiz-adv-x="1230" d="M690 1012q194 0 312 -129t118 -344v-539h-284v514q0 116 -55 178t-156 62q-114 0 -215 -123v-631h-285v1454h285v-543q128 101 280 101z" />
<glyph unicode="i" horiz-adv-x="550" d="M276 1163q-72 0 -122 47t-50 117q0 72 50 120t122 48q71 0 120.5 -48.5t49.5 -119.5q0 -70 -49.5 -117t-120.5 -47zM420 981v-981h-285v981h285z" />
<glyph unicode="j" horiz-adv-x="542" d="M266 1163q-71 0 -121.5 47t-50.5 117q0 71 50.5 119.5t121.5 48.5q72 0 122 -48t50 -120q0 -70 -50 -117t-122 -47zM410 981v-909q0 -116 -21 -197.5t-71.5 -143.5t-140 -93t-222.5 -33l-25 243q114 10 154.5 49.5t40.5 137.5v946h285z" />
<glyph unicode="k" horiz-adv-x="1196" d="M567 369l-157 -166v-203h-285v1454h285v-881l378 408h355l-381 -406l424 -575h-359z" />
<glyph unicode="l" horiz-adv-x="534" d="M410 1454v-1454h-285v1454h285z" />
<glyph unicode="m" horiz-adv-x="1867" d="M1321 1012q184 0 306 -131t122 -342v-539h-285v514q0 116 -54.5 178t-154.5 62q-106 0 -184 -109q8 -70 8 -106v-539h-284v514q0 117 -54.5 178.5t-156.5 61.5q-93 0 -174 -111v-643h-285v981h285v-59q49 46 104 68t137 22q193 0 314 -140q80 74 161.5 107t194.5 33z" />
<glyph unicode="n" horiz-adv-x="1230" d="M690 1012q194 0 312 -129t118 -344v-539h-284v514q0 116 -55 178t-156 62q-114 0 -215 -123v-631h-285v981h285v-70q128 101 280 101z" />
<glyph unicode="o" horiz-adv-x="1204" d="M604 1001q226 0 374 -145t148 -367q0 -224 -148 -372t-374 -148q-227 0 -376.5 148t-149.5 372q0 222 149 367t377 145zM604 223q108 0 175 76.5t67 189.5q0 111 -67 185t-175 74q-110 0 -178 -74t-68 -185q0 -113 68 -189.5t178 -76.5z" />
<glyph unicode="p" horiz-adv-x="1255" d="M688 1001q133 0 245 -67t177.5 -185t65.5 -260q0 -213 -142.5 -361t-345.5 -148q-159 0 -278 77v-530h-285v1454h285v-57q119 77 278 77zM641 221q108 0 181 79.5t73 188.5q0 111 -73 192t-181 81q-147 0 -231 -115v-313q85 -113 231 -113z" />
<glyph unicode="q" horiz-adv-x="1255" d="M1128 981v-1454h-284v528q-121 -75 -277 -75q-203 0 -346 148t-143 361q0 142 65.5 260t178 185t245.5 67q161 0 277 -75v55h284zM614 221q145 0 230 113v315q-85 113 -230 113q-110 0 -182 -80.5t-72 -192.5q0 -110 72 -189t182 -79z" />
<glyph unicode="r" horiz-adv-x="813" d="M410 981v-111q136 127 344 127v-270q-223 -9 -344 -141v-586h-285v981h285z" />
<glyph unicode="s" horiz-adv-x="1040" d="M57 340l260 -2q22 -145 205 -145q74 0 120 22.5t46 60.5q0 64 -98 82l-209 35q-59 11 -108.5 32t-91.5 55t-65.5 86t-23.5 118q0 150 116.5 237t307.5 87q46 0 90 -6t94 -19t92 -38.5t78 -61t58.5 -89.5t27.5 -120l-260 -2q-4 62 -54 92.5t-126 30.5q-70 0 -107.5 -24 t-37.5 -60q0 -72 116 -93l179 -28q297 -54 297 -289q0 -160 -123.5 -246t-319.5 -86q-90 0 -166.5 19.5t-142 61t-106.5 115.5t-48 175z" />
<glyph unicode="t" horiz-adv-x="935" d="M840 258l37 -244q-88 -27 -141.5 -36t-123.5 -9q-178 0 -285.5 115.5t-107.5 306.5v350h-207v240h207v350h283v-350h354v-240h-354v-348q0 -81 45.5 -121.5t126.5 -40.5q60 0 166 27z" />
<glyph unicode="u" horiz-adv-x="1230" d="M1106 981v-981h-285v70q-128 -101 -280 -101q-194 0 -312 129t-118 342v541h284v-514q0 -116 55 -178t156 -62q114 0 215 123v631h285z" />
<glyph unicode="v" horiz-adv-x="1193" d="M1167 981l-442 -981h-254l-442 981h301l268 -621l268 621h301z" />
<glyph unicode="w" horiz-adv-x="1636" d="M1608 981l-359 -981h-252l-178 541l-180 -541h-250l-358 981h305l180 -547l184 547h236l186 -549l181 549h305z" />
<glyph unicode="x" horiz-adv-x="1146" d="M762 492l358 -492h-329l-216 299l-217 -299h-331l358 494l-358 489h342l202 -283l209 283h340z" />
<glyph unicode="y" horiz-adv-x="1300" d="M1253 983l-620 -1454h-299l190 446l-477 1008h303l318 -670l286 670h299z" />
<glyph unicode="z" horiz-adv-x="1028" d="M963 829l-480 -593h480v-236h-900v133l496 612h-483v236h887v-152z" />
<glyph unicode="{" horiz-adv-x="731" d="M510 1133v-289q0 -103 -30.5 -154.5t-125.5 -79.5q95 -29 125.5 -80t30.5 -153v-289q0 -53 44.5 -86t117.5 -33v-272q-201 0 -324 105.5t-123 279.5v291q0 24 -3.5 42t-8 30t-17 20t-22 12.5t-31 6.5t-37 2.5t-47.5 0.5v244q27 0 41.5 0.5t34 2t29.5 4.5t22.5 8.5 t18 13.5t11 20t7.5 28.5t2 37.5v291q0 176 122.5 281.5t324.5 105.5v-275q-73 0 -117.5 -31.5t-44.5 -84.5z" />
<glyph unicode="|" horiz-adv-x="663" d="M463 1495v-1823h-262v1823h262z" />
<glyph unicode="}" horiz-adv-x="759" d="M250 844v289q0 53 -44.5 84.5t-117.5 31.5v275q201 0 324 -105.5t123 -281.5v-291q0 -42 7.5 -65.5t31 -34.5t47.5 -13t77 -2v-244q-37 0 -54 -0.5t-40 -4t-32.5 -10t-20 -19.5t-13.5 -32.5t-3 -47.5v-291q0 -174 -123.5 -279.5t-323.5 -105.5v272q73 0 117.5 33t44.5 86 v289q0 102 30 153t123 80q-93 28 -123 79.5t-30 154.5z" />
<glyph unicode="~" horiz-adv-x="917" d="M637 840h248q0 -88 -27.5 -154.5t-71.5 -102.5t-97.5 -52t-108 -8.5t-101.5 34.5l-102 61q-27 16 -47 17t-30 -11t-14.5 -27t-4.5 -34h-248q0 87 27 153.5t71 102t97.5 51.5t108 9t101.5 -33l105 -62q36 -24 57 -15.5t29 27t8 44.5z" />
<glyph unicode="&#xa1;" horiz-adv-x="587" d="M293 1004q70 0 119 -47t49 -115q0 -67 -49.5 -113.5t-118.5 -46.5q-68 0 -117 46.5t-49 113.5q0 68 49 115t117 47zM143 -408l25 945h250l24 -945h-299z" />
<glyph unicode="&#xa2;" horiz-adv-x="1175" d="M604 231q81 0 137.5 41.5t71.5 112.5h283q-19 -149 -118 -254t-247 -139v-209h-248v207q-180 39 -292.5 175.5t-112.5 323.5q0 189 112.5 326t292.5 174v242h248v-244q148 -34 247 -139t118 -254h-283q-15 71 -71.5 113.5t-137.5 42.5q-111 0 -178.5 -74.5t-67.5 -186.5 q0 -111 67 -184.5t179 -73.5z" />
<glyph unicode="&#xa3;" horiz-adv-x="1253" d="M463 246h713v-246h-1115v246h119v313h-119v240h119v127q0 224 140.5 359.5t371.5 135.5q213 0 350.5 -116t159.5 -312h-287q-19 84 -77.5 131t-145.5 47q-103 0 -166 -66.5t-63 -178.5v-127h391v-240h-391v-313z" />
<glyph unicode="&#xa5;" horiz-adv-x="1439" d="M973 625h256v-199h-359v-92h359v-199h-359v-135h-299v135h-360v199h360v92h-360v199h256l-451 768h328l375 -648l377 648h327z" />
<glyph unicode="&#xa7;" horiz-adv-x="1124" d="M1065 477q0 -173 -143 -258q55 -88 55 -199q0 -161 -118 -254.5t-298 -93.5q-194 0 -317.5 107.5t-143.5 288.5h306q5 -66 42 -106t109 -40q55 0 90 29t35 78q0 81 -88 123l-242 108q-161 73 -227 157t-66 193q0 171 146 256q-58 88 -58 201q0 159 118 252.5t298 93.5 q194 0 317.5 -107t143.5 -286h-305q-5 65 -42 105t-108 40q-56 0 -91.5 -29.5t-35.5 -76.5q0 -83 88 -123l242 -113q161 -75 227 -157t66 -189zM477 485l244 -112q29 12 46 37.5t17 56.5q0 40 -34 71t-103 62l-244 113q-29 -10 -46 -37t-17 -58q0 -72 137 -133z" />
<glyph unicode="&#xa8;" d="M391 1454q72 0 122 -47.5t50 -116.5q0 -70 -50 -118t-122 -48q-71 0 -121.5 48t-50.5 118q0 69 50.5 116.5t121.5 47.5zM840 1454q71 0 120.5 -47.5t49.5 -116.5q0 -70 -49.5 -118t-120.5 -48q-72 0 -122 48t-50 118q0 69 50 116.5t122 47.5z" />
<glyph unicode="&#xa9;" horiz-adv-x="1697" d="M850 1423q150 0 287 -55.5t238 -151.5t160.5 -231.5t59.5 -288.5t-59.5 -288.5t-160.5 -231.5t-238 -151.5t-287 -55.5q-201 0 -372 94t-272.5 262t-101.5 371t101.5 371t272.5 262t372 94zM848 147q148 0 276.5 72t205.5 199t77 278t-77 278t-205.5 199t-276.5 72 q-149 0 -277 -72t-204 -199t-76 -278t76 -278t204 -199t277 -72zM852 840q-64 0 -105.5 -43t-41.5 -105q0 -61 41.5 -103t105.5 -42q44 0 79 21.5t50 58.5h209q-20 -122 -113 -196.5t-223 -74.5q-151 0 -251.5 95t-100.5 241q0 147 100.5 242.5t251.5 95.5q130 0 223 -74 t113 -196h-209q-15 36 -50 58t-79 22z" />
<glyph unicode="&#xaa;" horiz-adv-x="727" d="M367 1403q136 0 219.5 -76.5t83.5 -208.5v-391h-193v25q-80 -37 -164 -37q-125 0 -199.5 57t-74.5 156q0 93 68 141.5t186 48.5h184q0 55 -23 88t-87 33q-46 0 -76 -21t-33 -61h-192q2 63 29.5 112t71 77.5t94.5 42.5t106 14zM328 868q79 0 149 47v68h-192q-26 0 -44 -12 t-18 -31q0 -28 25.5 -50t79.5 -22z" />
<glyph unicode="&#xab;" horiz-adv-x="952" d="M506 836l-189 -320l189 -319h-266l-191 319l191 320h266zM903 836l-190 -320l190 -319h-268l-191 319l191 320h268z" />
<glyph unicode="&#xad;" horiz-adv-x="1126" d="M924 672v-281h-721v281h721z" />
<glyph unicode="&#xae;" horiz-adv-x="1161" d="M580 1417q141 0 260.5 -66t190.5 -184t71 -260t-71 -259.5t-190.5 -183t-260.5 -65.5t-261 65.5t-191 183t-71 259.5t71 260t191 184t261 66zM578 537q152 0 263 108.5t111 261.5q0 155 -111 264t-263 109q-151 0 -261 -109t-110 -264q0 -153 110.5 -261.5t260.5 -108.5z M776 979q0 -85 -76 -125l95 -141h-138l-73 118h-58v-118h-110v422h186q77 0 125.5 -43t48.5 -113zM526 928h74q31 0 47.5 14t16.5 39q0 24 -17 37.5t-47 13.5h-74v-104z" />
<glyph unicode="&#xaf;" d="M903 1401v-227h-577v227h577z" />
<glyph unicode="&#xb0;" horiz-adv-x="952" d="M475 1423q157 0 260 -99t103 -251q0 -153 -103 -252.5t-260 -99.5q-156 0 -257 99.5t-101 252.5q0 152 101.5 251t256.5 99zM475 924q63 0 108.5 44t45.5 105t-45.5 104.5t-108.5 43.5q-62 0 -106.5 -43.5t-44.5 -104.5t44.5 -105t106.5 -44z" />
<glyph unicode="&#xb1;" horiz-adv-x="1390" d="M1188 662h-363v-265h-260v265h-362v249h362v267h260v-267h363v-249zM1188 317v-249h-985v249h985z" />
<glyph unicode="&#xb4;" d="M922 1452l-205 -315h-258l153 315h310z" />
<glyph unicode="&#xb6;" horiz-adv-x="1585" d="M1460 1393v-1721h-284v1477h-166v-1477h-283v748h-158q-148 0 -268 62t-190 177.5t-70 262.5q0 209 151 340t377 131h891zM727 1149h-158q-114 0 -183 -63t-69 -166q0 -109 69 -176.5t183 -67.5h158v473z" />
<glyph unicode="&#xb7;" horiz-adv-x="456" d="M227 395q-70 0 -119 47t-49 115t49 115t119 47q71 0 120.5 -46.5t49.5 -115.5t-49.5 -115.5t-120.5 -46.5z" />
<glyph unicode="&#xb8;" d="M649 -440h-241l88 338h276z" />
<glyph unicode="&#xba;" horiz-adv-x="794" d="M397 1407q152 0 250 -97t98 -245q0 -152 -98 -251t-250 -99q-151 0 -249.5 99t-98.5 251q0 148 98.5 245t249.5 97zM397 891q69 0 112.5 50t43.5 124q0 70 -43.5 118t-112.5 48q-70 0 -113.5 -47.5t-43.5 -118.5q0 -74 43.5 -124t113.5 -50z" />
<glyph unicode="&#xbb;" horiz-adv-x="952" d="M506 516l-189 -319h-268l191 319l-191 320h268zM903 516l-190 -319h-267l189 319l-189 320h267z" />
<glyph unicode="&#xbf;" horiz-adv-x="1079" d="M602 1128q70 0 118 -46t48 -115q0 -67 -48.5 -113.5t-117.5 -46.5t-118.5 46.5t-49.5 113.5q0 68 49 114.5t119 46.5zM707 670l20 -328h-154q-95 0 -159 -55t-64 -148q0 -89 55 -143.5t146 -54.5q84 0 140.5 47.5t64.5 124.5h284q-14 -192 -138 -306t-339 -114 q-208 0 -345.5 124t-137.5 322q0 166 105 268.5t290 124.5l12 138h220z" />
<glyph unicode="&#xc0;" horiz-adv-x="1546" d="M670 1542l-205 316h311l152 -316h-258zM1090 268h-631l-109 -268h-317l600 1401h280l600 -1401h-315zM979 537l-207 510l-205 -510h412z" />
<glyph unicode="&#xc1;" horiz-adv-x="1546" d="M897 1542h-258l154 316h309zM1090 268h-631l-109 -268h-317l600 1401h280l600 -1401h-315zM979 537l-207 510l-205 -510h412z" />
<glyph unicode="&#xc4;" horiz-adv-x="1546" d="M547 1530q-71 0 -120.5 48t-49.5 118q0 69 49.5 116.5t120.5 47.5q72 0 122 -47.5t50 -116.5q0 -70 -50 -118t-122 -48zM995 1530q-72 0 -122 48t-50 118q0 69 50 116.5t122 47.5q71 0 120.5 -47.5t49.5 -116.5q0 -70 -49.5 -118t-120.5 -48zM1090 268h-631l-109 -268 h-317l600 1401h280l600 -1401h-315zM979 537l-207 510l-205 -510h412z" />
<glyph unicode="&#xc5;" horiz-adv-x="1546" d="M772 1552q-109 0 -175.5 62.5t-66.5 163.5t66.5 163t175.5 62t175.5 -62t66.5 -163t-66.5 -163.5t-175.5 -62.5zM772 1866q-40 0 -64 -24t-24 -64t24 -64t64 -24t64 24t24 64t-24 64t-64 24zM1090 268h-631l-109 -268h-317l600 1401h280l600 -1401h-315zM979 537 l-207 510l-205 -510h412z" />
<glyph unicode="&#xc9;" horiz-adv-x="1253" d="M770 1542h-258l154 316h309zM432 1124v-303h653v-268h-653v-285h737v-268h-1032v1393h1032v-269h-737z" />
<glyph unicode="&#xcb;" horiz-adv-x="1253" d="M420 1530q-71 0 -121.5 48t-50.5 118q0 69 50.5 116.5t121.5 47.5q72 0 122 -47.5t50 -116.5q0 -70 -50 -118t-122 -48zM868 1530q-72 0 -122 48t-50 118q0 69 50 116.5t122 47.5q71 0 120.5 -47.5t49.5 -116.5q0 -70 -49.5 -118t-120.5 -48zM432 1124v-303h653v-268 h-653v-285h737v-268h-1032v1393h1032v-269h-737z" />
<glyph unicode="&#xd6;" horiz-adv-x="1665" d="M606 1860q72 0 122 -47.5t50 -116.5q0 -70 -50 -118t-122 -48q-71 0 -120.5 48t-49.5 118q0 69 49.5 116.5t120.5 47.5zM1055 1860q71 0 120.5 -47.5t49.5 -116.5q0 -70 -49.5 -118t-120.5 -48q-72 0 -122 48t-50 118q0 69 50 116.5t122 47.5zM834 1421q200 0 367 -96.5 t263.5 -263.5t96.5 -365t-96.5 -365t-263.5 -263.5t-367 -96.5q-150 0 -285.5 57t-233 154t-154.5 231t-57 283t57 283t154.5 231t233 154t285.5 57zM831 248q121 0 220 60.5t154 163t55 224.5t-55 224.5t-154 163.5t-220 61q-120 0 -219 -60.5t-154 -163.5t-55 -225 t55 -224.5t154 -163t219 -60.5z" />
<glyph unicode="&#xdc;" horiz-adv-x="1495" d="M524 1860q72 0 122 -47.5t50 -116.5q0 -70 -50 -118t-122 -48q-71 0 -120.5 48t-49.5 118q0 69 49.5 116.5t120.5 47.5zM973 1860q71 0 120.5 -47.5t49.5 -116.5q0 -70 -49.5 -118t-120.5 -48q-72 0 -122 48t-50 118q0 69 50 116.5t122 47.5zM1376 1393v-760 q0 -309 -171.5 -486.5t-459.5 -177.5q-287 0 -457.5 177.5t-170.5 486.5v760h297v-762q0 -174 90.5 -279.5t240.5 -105.5q151 0 242.5 106t91.5 279v762h297z" />
<glyph unicode="&#xe0;" horiz-adv-x="1255" d="M539 1137l-205 315h311l152 -315h-258zM1130 981v-981h-284v57q-119 -77 -279 -77q-203 0 -346 148t-143 361q0 142 65.5 260t178 185t245.5 67q160 0 279 -77v57h284zM614 221q148 0 232 115v311q-84 115 -232 115q-110 0 -182 -80.5t-72 -192.5q0 -110 72 -189t182 -79 z" />
<glyph unicode="&#xe1;" horiz-adv-x="1255" d="M770 1137h-258l154 315h309zM1130 981v-981h-284v57q-119 -77 -279 -77q-203 0 -346 148t-143 361q0 142 65.5 260t178 185t245.5 67q160 0 279 -77v57h284zM614 221q148 0 232 115v311q-84 115 -232 115q-110 0 -182 -80.5t-72 -192.5q0 -110 72 -189t182 -79z" />
<glyph unicode="&#xe4;" horiz-adv-x="1255" d="M422 1124q-71 0 -121.5 48t-50.5 118q0 69 50.5 116.5t121.5 47.5q72 0 122 -47.5t50 -116.5q0 -70 -50 -118t-122 -48zM870 1124q-72 0 -122 48t-50 118q0 69 50 116.5t122 47.5q71 0 120.5 -47.5t49.5 -116.5q0 -70 -49.5 -118t-120.5 -48zM1130 981v-981h-284v57 q-119 -77 -279 -77q-203 0 -346 148t-143 361q0 142 65.5 260t178 185t245.5 67q160 0 279 -77v57h284zM614 221q148 0 232 115v311q-84 115 -232 115q-110 0 -182 -80.5t-72 -192.5q0 -110 72 -189t182 -79z" />
<glyph unicode="&#xe5;" horiz-adv-x="1255" d="M645 1112q-109 0 -175.5 62t-66.5 163t66.5 163.5t175.5 62.5t175.5 -62.5t66.5 -163.5t-66.5 -163t-175.5 -62zM645 1425q-40 0 -64 -24t-24 -64t24 -64t64 -24t64 24t24 64t-24 64t-64 24zM1130 981v-981h-284v57q-119 -77 -279 -77q-203 0 -346 148t-143 361 q0 142 65.5 260t178 185t245.5 67q160 0 279 -77v57h284zM614 221q148 0 232 115v311q-84 115 -232 115q-110 0 -182 -80.5t-72 -192.5q0 -110 72 -189t182 -79z" />
<glyph unicode="&#xe9;" horiz-adv-x="1163" d="M723 1137h-258l153 315h310zM1085 510q0 -82 -6 -123h-717q23 -79 84.5 -126.5t163.5 -47.5q119 0 166 74h297q-40 -141 -168 -225.5t-301 -84.5q-235 0 -380.5 144.5t-145.5 367.5t144.5 367.5t377.5 144.5q208 0 346.5 -137t138.5 -354zM590 768q-92 0 -150.5 -49.5 t-79.5 -132.5h443q-14 87 -69 134.5t-144 47.5z" />
<glyph unicode="&#xeb;" horiz-adv-x="1163" d="M375 1124q-71 0 -121.5 48t-50.5 118q0 69 50.5 116.5t121.5 47.5q72 0 122 -47.5t50 -116.5q0 -70 -50 -118t-122 -48zM823 1124q-72 0 -122 48t-50 118q0 69 50 116.5t122 47.5q71 0 120.5 -47.5t49.5 -116.5q0 -70 -49.5 -118t-120.5 -48zM1085 510q0 -82 -6 -123 h-717q23 -79 84.5 -126.5t163.5 -47.5q119 0 166 74h297q-40 -141 -168 -225.5t-301 -84.5q-235 0 -380.5 144.5t-145.5 367.5t144.5 367.5t377.5 144.5q208 0 346.5 -137t138.5 -354zM590 768q-92 0 -150.5 -49.5t-79.5 -132.5h443q-14 87 -69 134.5t-144 47.5z" />
<glyph unicode="&#xf6;" horiz-adv-x="1204" d="M381 1454q72 0 122 -47.5t50 -116.5q0 -70 -50 -118t-122 -48q-71 0 -121.5 48t-50.5 118q0 69 50.5 116.5t121.5 47.5zM829 1454q71 0 120.5 -47.5t49.5 -116.5q0 -70 -49.5 -118t-120.5 -48q-72 0 -122 48t-50 118q0 69 50 116.5t122 47.5zM602 1001q226 0 375 -145 t149 -367q0 -224 -149 -372t-375 -148q-227 0 -375.5 147.5t-148.5 372.5q0 223 148.5 367.5t375.5 144.5zM604 223q108 0 176 76.5t68 189.5q0 111 -68 185t-176 74q-110 0 -178 -74t-68 -185q0 -113 68 -189.5t178 -76.5z" />
<glyph unicode="&#xf7;" horiz-adv-x="1396" d="M698 926q-67 0 -113 44t-46 109q0 66 46.5 110t112.5 44q67 0 114.5 -44.5t47.5 -109.5t-47.5 -109t-114.5 -44zM203 805h991v-252h-991v252zM698 135q-66 0 -112.5 45t-46.5 109q0 66 46.5 110.5t112.5 44.5q67 0 114.5 -45t47.5 -110q0 -64 -48 -109t-114 -45z" />
<glyph unicode="&#xfc;" horiz-adv-x="1230" d="M393 1124q-71 0 -121.5 48t-50.5 118q0 69 50.5 116.5t121.5 47.5q72 0 122 -47.5t50 -116.5q0 -70 -50 -118t-122 -48zM842 1124q-72 0 -122 48t-50 118q0 69 50 116.5t122 47.5q71 0 120.5 -47.5t49.5 -116.5q0 -70 -49.5 -118t-120.5 -48zM1106 981v-981h-285v70 q-128 -101 -280 -101q-194 0 -312 129t-118 342v541h284v-514q0 -116 55 -178t156 -62q114 0 215 123v631h285z" />
<glyph unicode="&#x192;" horiz-adv-x="1200" d="M938 1141q-84 0 -131.5 -47t-58.5 -133l-25 -185h336v-235h-369l-45 -336q-29 -206 -137 -324.5t-289 -118.5q-121 0 -242 33l39 248q73 -18 146 -18q84 0 131.5 47t58.5 133l45 336h-262v235h293l25 185q29 206 137.5 324t290.5 118q123 0 241 -35l-39 -246 q-93 19 -145 19z" />
<glyph unicode="&#x2c6;" d="M616 1266l-116 -146h-258l239 322h269l239 -322h-258z" />
<glyph unicode="&#x2c7;" d="M991 1440l-241 -320h-269l-241 320h260l116 -144l115 144h260z" />
<glyph unicode="&#x2d8;" d="M743 1430h205q0 -159 -91.5 -245.5t-242.5 -86.5q-150 0 -241.5 86.5t-91.5 245.5h204q0 -144 129 -144q58 0 93.5 34t35.5 110z" />
<glyph unicode="&#x2d9;" d="M614 1124q-71 0 -121.5 48t-50.5 118q0 69 50.5 116.5t121.5 47.5t121.5 -47.5t50.5 -116.5q0 -70 -50.5 -118t-121.5 -48z" />
<glyph unicode="&#x2da;" d="M608 1563q109 0 175.5 -62.5t66.5 -163.5t-66.5 -163t-175.5 -62t-175 62t-66 163t66 163.5t175 62.5zM608 1249q40 0 64 24t24 64t-24 64t-64 24t-64 -24t-24 -64t24 -64t64 -24z" />
<glyph unicode="&#x2db;" d="M733 133l27 -121q-71 -10 -100 -30t-29 -52q0 -57 110 -57q35 0 90 12l27 -209q-59 -26 -153 -26q-137 0 -223.5 67t-86.5 177q0 90 89 157.5t249 81.5z" />
<glyph unicode="&#x2dc;" d="M780 1421h221q0 -78 -24.5 -137t-63.5 -91t-87 -46.5t-97 -8t-90 30.5l-94 56q-33 22 -52.5 14.5t-26.5 -23.5t-7 -40h-221q0 78 24.5 137.5t63.5 91.5t87 46.5t97 8t90 -29.5l94 -58q33 -21 52.5 -13.5t26.5 23.5t7 39z" />
<glyph unicode="&#x2dd;" d="M725 1452l-162 -313h-229l108 313h283zM1038 1452l-159 -313h-230l109 313h280z" />
<glyph unicode="&#x2000;" horiz-adv-x="1001" />
<glyph unicode="&#x2001;" horiz-adv-x="2003" />
<glyph unicode="&#x2002;" horiz-adv-x="1001" />
<glyph unicode="&#x2003;" horiz-adv-x="2003" />
<glyph unicode="&#x2004;" horiz-adv-x="667" />
<glyph unicode="&#x2005;" horiz-adv-x="500" />
<glyph unicode="&#x2006;" horiz-adv-x="333" />
<glyph unicode="&#x2007;" horiz-adv-x="333" />
<glyph unicode="&#x2008;" horiz-adv-x="250" />
<glyph unicode="&#x2009;" horiz-adv-x="400" />
<glyph unicode="&#x200a;" horiz-adv-x="111" />
<glyph unicode="&#x2010;" horiz-adv-x="1126" d="M924 672v-281h-721v281h721z" />
<glyph unicode="&#x2011;" horiz-adv-x="1126" d="M924 672v-281h-721v281h721z" />
<glyph unicode="&#x2012;" horiz-adv-x="1126" d="M924 672v-281h-721v281h721z" />
<glyph unicode="&#x2013;" horiz-adv-x="1423" d="M1221 674v-281h-1018v281h1018z" />
<glyph unicode="&#x2014;" horiz-adv-x="2162" d="M1960 674v-281h-1757v281h1757z" />
<glyph unicode="&#x2018;" horiz-adv-x="454" d="M395 1391l-100 -213q98 -43 98 -136q0 -67 -48.5 -113t-117.5 -46q-71 0 -119.5 46t-48.5 113q0 32 9.5 59t46.5 93l114 197h166z" />
<glyph unicode="&#x2019;" horiz-adv-x="454" d="M59 903l101 215q-99 40 -99 135q0 66 48.5 112t117.5 46q70 0 119 -46t49 -112q0 -33 -9 -60t-46 -91l-115 -199h-166z" />
<glyph unicode="&#x201a;" horiz-adv-x="454" d="M59 -223l101 213q-99 42 -99 135q0 67 48.5 113.5t117.5 46.5t118.5 -46.5t49.5 -113.5q0 -33 -9.5 -60.5t-47.5 -91.5l-113 -196h-166z" />
<glyph unicode="&#x201c;" horiz-adv-x="851" d="M395 1391l-100 -213q98 -43 98 -136q0 -67 -48.5 -113t-117.5 -46q-71 0 -119.5 46t-48.5 113q0 32 9.5 59t46.5 93l114 197h166zM793 1391l-101 -213q99 -42 99 -136q0 -67 -48.5 -113t-117.5 -46q-70 0 -119 46t-49 113q0 33 9.5 59.5t47.5 92.5l113 197h166z" />
<glyph unicode="&#x201d;" horiz-adv-x="851" d="M59 903l101 215q-99 40 -99 135q0 66 48.5 112t117.5 46q70 0 119 -46t49 -112q0 -33 -9 -60t-46 -91l-115 -199h-166zM457 903l100 215q-98 40 -98 135q0 66 49 112t117 46q70 0 119 -46t49 -112q0 -32 -9.5 -59t-46.5 -92l-114 -199h-166z" />
<glyph unicode="&#x201e;" horiz-adv-x="858" d="M59 -223l101 213q-99 42 -99 135q0 67 48.5 113.5t117.5 46.5t118.5 -46.5t49.5 -113.5q0 -33 -9.5 -60.5t-47.5 -91.5l-113 -196h-166zM463 -223l100 213q-98 43 -98 135q0 67 48.5 113.5t117.5 46.5q71 0 119.5 -46.5t48.5 -113.5q0 -32 -9.5 -59.5t-46.5 -92.5 l-114 -196h-166z" />
<glyph unicode="&#x2020;" horiz-adv-x="833" d="M508 1055v-441h-182v441h-236v182h236v236h182v-236h235v-182h-235z" />
<glyph unicode="&#x2021;" horiz-adv-x="833" d="M508 993h235v-184h-235v-195h-182v195h-236v184h236v109h-236v182h236v189h182v-189h235v-182h-235v-109z" />
<glyph unicode="&#x2022;" horiz-adv-x="698" d="M348 322q-116 0 -202.5 85.5t-86.5 200.5t86.5 201t202.5 86q117 0 204 -86t87 -201t-87 -200.5t-204 -85.5z" />
<glyph unicode="&#x2026;" horiz-adv-x="1431" d="M227 -39q-70 0 -119 47t-49 117q0 68 49 115t119 47t120 -47t50 -115q0 -70 -50 -117t-120 -47zM709 -39q-70 0 -119 47t-49 117q0 68 49 115t119 47q71 0 120.5 -46.5t49.5 -115.5q0 -70 -49.5 -117t-120.5 -47zM1202 -39q-69 0 -118.5 47.5t-49.5 116.5q0 68 50 115 t118 47q71 0 120.5 -46.5t49.5 -115.5q0 -70 -49.5 -117t-120.5 -47z" />
<glyph unicode="&#x202f;" horiz-adv-x="400" />
<glyph unicode="&#x2030;" horiz-adv-x="3170" d="M565 1423q176 0 294 -112t118 -289q0 -180 -118 -293t-294 -113q-177 0 -294 112.5t-117 293.5q0 178 117 289.5t294 111.5zM723 0h-195l947 1393h196zM565 813q85 0 144 58t59 151q0 90 -59 147.5t-144 57.5q-87 0 -146 -57t-59 -148q0 -93 59 -151t146 -58zM1661 776 q177 0 295.5 -111.5t118.5 -289.5q0 -180 -118 -293t-296 -113q-176 0 -293 113t-117 293q0 178 117 289.5t293 111.5zM2603 776q177 0 295.5 -111.5t118.5 -289.5q0 -180 -118 -293t-296 -113q-176 0 -293 113t-117 293q0 178 117 289.5t293 111.5zM1661 166q87 0 146 58 t59 151q0 91 -59 148t-146 57q-85 0 -144 -57.5t-59 -147.5q0 -93 59 -151t144 -58zM2605 166q87 0 146 58t59 151q0 91 -59 148t-146 57q-85 0 -144 -57.5t-59 -147.5q0 -93 59 -151t144 -58z" />
<glyph unicode="&#x2039;" horiz-adv-x="557" d="M508 836l-191 -320l191 -319h-268l-191 319l191 320h268z" />
<glyph unicode="&#x203a;" horiz-adv-x="559" d="M508 516l-189 -319h-268l191 319l-191 320h268z" />
<glyph unicode="&#x2044;" horiz-adv-x="1034" d="M141 0h-194l946 1393h194z" />
<glyph unicode="&#x205f;" horiz-adv-x="500" />
<glyph unicode="&#x20ac;" horiz-adv-x="1751" d="M961 254q150 0 248.5 79.5t133.5 229.5h306q-44 -268 -230.5 -430t-455.5 -162q-235 0 -420.5 125.5t-263.5 335.5h-199v186h158q-5 62 -5 78v39h-153v187h186q69 226 259.5 362.5t437.5 136.5q269 0 455.5 -162t230.5 -430h-306q-35 150 -133.5 230t-248.5 80 q-125 0 -223.5 -57.5t-151.5 -159.5h516l-49 -187h-518l-3 -39q0 -34 7 -78h489l-47 -186h-373q57 -85 148.5 -131.5t204.5 -46.5z" />
<glyph unicode="&#x2122;" horiz-adv-x="1431" d="M604 1391v-150h-194v-448h-156v448h-195v150h545zM1341 1391v-598h-157v284l-144 -215h-84v2l-145 217l2 -288h-156v598h115l227 -328l226 328h116z" />
<glyph unicode="&#x25fc;" horiz-adv-x="985" d="M0 985h985v-985h-985v985z" />
<glyph unicode="&#xfb01;" horiz-adv-x="1478" d="M1346 981v-981h-283v741h-506v-741h-285v741h-262v240h262v82q0 227 127 363.5t330 136.5q29 0 56 -1.5t47 -3t48 -6t42 -7t47 -10t44.5 -10.5t53 -13.5t55.5 -14.5l-53 -242q-12 3 -45 10.5t-45 10t-38.5 7.5t-42 7t-39 5t-45.5 4t-46 1q-101 0 -156 -63t-55 -174v-82 h789z" />
<glyph unicode="&#xfb02;" horiz-adv-x="1462" d="M272 981v139q0 199 115 321t303 122q114 0 242 -35l-39 -244q-93 19 -145 19q-86 0 -138.5 -49.5t-52.5 -131.5v-141h330v-240h-330v-741h-285v741h-262v240h262zM1337 1454v-1454h-284v1454h284z" />
</font>
</defs>
</svg>
